# xmcd
#
# Track frame offsets:
#	150
#	17968
#	34692
#	47898
#	63979
#	77676
#	91404
#	106729
#	121185
#	136530
#	150385
#	165606
#	181561
#	198083
#	213011
#	229233
#	245438
#	262509
#	278571
#
# Disc length: 3923 seconds
#
# Revision: 1
# Processed by: cddbd v1.5.2PL0 Copyright (c) Steve Scherf et al.
# Submitted via: audiograbber 1.83.01
#
DISCID=dd0f5113
DTITLE=Gaby Albrecht - Sehnsuchtsmelodien (Best of) CD 2
DYEAR=2006
DGENRE=Country
TTITLE0=Der Fluss
TTITLE1=Manchmal wünsch' ich mir ein Herz aus Stein
TTITLE2=Freiheit fühlen (Chor der Gefangenen aus "Nabucco")
TTITLE3=Einmal wird ein Wunder gescheh'n (Barcarole aus "Hoffmanns Erzählungen"
TTITLE3=)
TTITLE4=Tausendmal geht das Glück vorbei
TTITLE5=Meine Liebe
TTITLE6=Für immer
TTITLE7=Was wär ich ohne Liebe
TTITLE8=Wind in meinem Haar
TTITLE9=Ich wollte nie Dein Engel sein
TTITLE10=Sternenmelodie
TTITLE11=Nur noch Du
TTITLE12=Träume aus Glas
TTITLE13=Kein Augenblick des Lebens ist umsonst
TTITLE14=Der Wind hat mir ein Lied erzählt
TTITLE15=Sehnsuchtsmelodie
TTITLE16=Du
TTITLE17=Die Geschichte einer Liebe
TTITLE18=Das Salz im Meer
EXTD=
EXTT0=
EXTT1=
EXTT2=
EXTT3=
EXTT4=
EXTT5=
EXTT6=
EXTT7=
EXTT8=
EXTT9=
EXTT10=
EXTT11=
EXTT12=
EXTT13=
EXTT14=
EXTT15=
EXTT16=
EXTT17=
EXTT18=
PLAYORDER=
